<?xml version="1.0" encoding="utf-8"?>
<!-- Generator: Adobe Illustrator 23.0.0, SVG Export Plug-In . SVG Version: 6.00 Build 0)  -->
<svg version="1.1"
	 id="svg4209" inkscape:version="0.48.5 r10040" sodipodi:docname="IconoAlergenoLacteos.svg" xmlns:cc="http://creativecommons.org/ns#" xmlns:dc="http://purl.org/dc/elements/1.1/" xmlns:inkscape="http://www.inkscape.org/namespaces/inkscape" xmlns:rdf="http://www.w3.org/1999/02/22-rdf-syntax-ns#" xmlns:sodipodi="http://sodipodi.sourceforge.net/DTD/sodipodi-0.dtd" xmlns:svg="http://www.w3.org/2000/svg"
	 xmlns="http://www.w3.org/2000/svg" xmlns:xlink="http://www.w3.org/1999/xlink" x="0px" y="0px" viewBox="0 0 223.9 223.9"
	 style="enable-background:new 0 0 223.9 223.9;" xml:space="preserve">
<style type="text/css">
	.st0{fill:#000000;stroke:#000000;stroke-width:0.3732;stroke-linecap:round;stroke-linejoin:round;}
	.st1{fill:#FFFFFF;stroke:#FFFFFF;stroke-width:4.665170e-02;stroke-linecap:round;stroke-linejoin:round;}
	.st2{fill:#000000;stroke:#000000;stroke-width:4.665170e-02;stroke-linejoin:round;}
	.st3{fill:#000000;stroke:#000000;stroke-width:4.665170e-02;stroke-linecap:round;stroke-linejoin:round;}
</style>
<path id="path3230-0-5" sodipodi:cx="21.573027" sodipodi:cy="29.287827" sodipodi:rx="18.363815" sodipodi:ry="18.720394" sodipodi:type="arc" class="st0" d="
	M218.3,112c0,58.7-47.6,106.3-106.3,106.3S5.7,170.7,5.7,112S53.3,5.7,112,5.7S218.3,53.3,218.3,112z"/>
<g id="g4264" transform="translate(-72.470092,306.21785)">
	<path id="path4240" inkscape:connector-curvature="0" class="st1" d="M195.7-256.2l11.1-3.7l8.1-2.1l5.2,0.2l3.9,1.3l3.3,3.1
		l0.3,3.7l-0.7,2.6l-2.8,2.3l-4.7,2.4l-3.4,2.1l-2,2.6l-1.3,5.5l-1,4.6l1,7l3.6,4.7l4.9,6.8l5.4,11.5l2.3,7.5l2.1,13.2l0.7,9.3
		l-0.5,8.9l-1.8,9.8l-2.9,7l-3.4,5.9l-3.9,6.3l-3.7,3.7l-4.6,2.6l-8.3,1l-22.4-0.3l-7.2-0.7l-3.4-0.8l-2.8-1.8l-3.6-3.9l-7.6-11.4
		l-2.9-8.1l-2-7.3l-0.3-7.3l0.2-3.1l-2.4-3.6l-3.6-6.5l-3.3-6.7l-2.9-10.1l-1.1-5.7l0.8-8.1l1.5-8l3.1-6.5l6-6.7l6.2-3.4l6.7-2.3
		l-2.8-5.5l-0.8-4.1l0.7-2.8l3.6-2.6l7.2-2.1l7.6-1.1h5.9h5.7l3.4,0.5l-0.7,0.3l-2.9,0.8h-3.9l-4.7,0.3l-6.7,0.7l-5,1.6L165-251
		l0.8,1.6l3.3,0.8l4.9,0.7l2.1-0.2l4.6-1.6l7.6-3.3l5.5-2.4L195.7-256.2z"/>
	<path id="path4253" inkscape:connector-curvature="0" class="st2" d="M150.9-184.1l1.2-7.6l2.5-8.6l3.1-7.9l2.8-5.1l2.4-3.6
		l0.7-1.3l1.1-3l0.2-5l-0.6-3.4l-0.7-0.9l-1.1-0.6l-0.9,0.3l-4.7,2.6l-3.3,2.4l-4.6,4.8l-2.4,4.1l-1.7,5.2l-0.5,5.4l0.6,5.4l1,5
		l1.5,4.6l1.6,3.4L150.9-184.1z"/>
	<path id="path4255" inkscape:connector-curvature="0" class="st3" d="M171.8-238l2.2-0.7l2.4-0.1l1.5,0.3l0.8,1.7l0.3,2.6v5.1
		l-0.2,4.6l-0.7,4.6l-1.5,3.6l-0.9,1.8l-1.3,2.6l-1.5,2.5l-2.4,4l-1.6,3.8l-2.8,6.2l-2,5.7l-1.3,3.2l-1.1,2.6l-1.1,0.6l-0.9-0.2
		l-0.6-0.4l-0.3-1.6l1.5-7.8l2-5.8l2.8-7.5l2.8-5.3l2.4-4.6l1.6-3.7l0.5-3l-0.8-6.7l-0.4-4.7l-0.1-1.9L171.8-238z"/>
</g>
</svg>
