<?xml version="1.0" encoding="utf-8"?>
<!-- Generator: Adobe Illustrator 23.0.0, SVG Export Plug-In . SVG Version: 6.00 Build 0)  -->
<svg version="1.1"
	 id="svg4209" inkscape:version="0.48.5 r10040" sodipodi:docname="IconoAlergenoDioxidoAzufreSulfitos.svg" xmlns:cc="http://creativecommons.org/ns#" xmlns:dc="http://purl.org/dc/elements/1.1/" xmlns:inkscape="http://www.inkscape.org/namespaces/inkscape" xmlns:rdf="http://www.w3.org/1999/02/22-rdf-syntax-ns#" xmlns:sodipodi="http://sodipodi.sourceforge.net/DTD/sodipodi-0.dtd" xmlns:svg="http://www.w3.org/2000/svg"
	 xmlns="http://www.w3.org/2000/svg" xmlns:xlink="http://www.w3.org/1999/xlink" x="0px" y="0px" viewBox="0 0 223.9 223.9"
	 style="enable-background:new 0 0 223.9 223.9;" xml:space="preserve">

<style type="text/css">
	.st0{fill:none;stroke:none;stroke-width:4.0683;stroke-linecap:round;stroke-linejoin:round;}
	.st1{fill:#82104E;}
	.st2{font-family:'MyriadPro-Regular';}
	.st3{font-size:55.6411px;}
	.st4{fill:#82104E;stroke:#82104E;stroke-width:6.780539e-02;stroke-linecap:round;stroke-linejoin:round;}
	.st5{fill:none;stroke:none;stroke-width:6.780539e-02;}
	.st6{fill:#82104E;stroke:#82104E;stroke-width:6.780539e-02;}
	.st7{fill:#82104E;stroke:none;stroke-width:1.0559;stroke-linecap:round;stroke-linejoin:round;}
</style>


<path id="path3230-2-9" sodipodi:cx="21.573027" sodipodi:cy="29.287827" sodipodi:rx="18.363815" sodipodi:ry="18.720394" sodipodi:type="arc" class="st0" d="
	M218.3,112c0,58.7-47.6,106.3-106.3,106.3S5.7,170.7,5.7,112S53.3,5.7,112,5.7S218.3,53.3,218.3,112z"/>
<g id="g4196" transform="translate(-290.43647,304.95931)">
	<g id="g4054">
		<text transform="matrix(1 0 0 1 353.7504 -226.5296)" class="st1 st2 st3">E</text>
		<text transform="matrix(1 0 0 1 386.7416 -226.2464)" class="st1 st2 st3">-</text>
		<text transform="matrix(1 0 0 1 404.3612 -226.5296)" class="st1 st2 st3">X</text>
	</g>
	<path id="path4062" inkscape:connector-curvature="0" sodipodi:nodetypes="ccccccccccccccccccccccc" class="st4" d="M436.5-119.4
		l-0.1-7l33.6-19.9l-0.4-41.4l-33.3-18.9l-0.1-7.7l-5.1,0v7.5L402.2-190l-29.3-17l0.1-7.2l-4.9-0.1v7.2l-33.3,19.1l-0.3,42.2
		l33.6,19.4l0,6.8l5.1,0.2l0-7.1l28.7-16.9l29.2,16.7l-0.2,7.4L436.5-119.4z"/>
	<path id="path4074" inkscape:connector-curvature="0" sodipodi:nodetypes="ccccccc" class="st5" d="M370.8-197.8l26.7,15.5
		l0.1,30.9l-27.1,16.2l-27.1-15.7l0.1-31.8L370.8-197.8z"/>
	<path id="path3266" inkscape:connector-curvature="0" sodipodi:nodetypes="ccccc" class="st6" d="M348.5-180.7l2.7,4.5l20.6-12
		l-2.5-4.4L348.5-180.7z"/>
	<path id="path4074-5" inkscape:connector-curvature="0" sodipodi:nodetypes="ccccccc" class="st5" d="M434.3-199.5l26.7,15.5
		l0.1,30.9L434-136.9l-27.1-15.7l0.1-31.8L434.3-199.5z"/>
	<path id="path3266-0" inkscape:connector-curvature="0" sodipodi:nodetypes="ccccc" class="st6" d="M411.7-180.8l2.7,4.5l20.6-12
		l-2.5-4.4L411.7-180.8z"/>
	<path id="path4054" inkscape:connector-curvature="0" class="st6" d="M451.7-178.6l4.9,0.1l-0.1,25l-21.8,12.9l-2.5-4.5l19.3-11
		L451.7-178.6z"/>
	<path id="path4054-2" inkscape:connector-curvature="0" sodipodi:nodetypes="ccccccc" class="st6" d="M388.3-178.7l5.4,0.1l-0.1,25
		l-21.8,12.9l-2.9-4.2l19.3-11.1L388.3-178.7z"/>
	
		<path id="path4064" sodipodi:cx="500.03137" sodipodi:cy="28.692717" sodipodi:rx="1.3572516" sodipodi:ry="1.3241479" sodipodi:type="arc" class="st7" d="
		M347.5-184c0,4.2-3.4,7.7-7.7,7.7c-4.2,0-7.7-3.4-7.7-7.7s3.4-7.7,7.7-7.7C344.1-191.7,347.5-188.3,347.5-184z"/>
	
		<path id="path4064-8" sodipodi:cx="500.03137" sodipodi:cy="28.692717" sodipodi:rx="1.3572516" sodipodi:ry="1.3241479" sodipodi:type="arc" class="st7" d="
		M347.1-149.3c0,4.2-3.4,7.7-7.7,7.7c-4.2,0-7.7-3.4-7.7-7.7s3.4-7.7,7.7-7.7C343.7-157,347.1-153.6,347.1-149.3z"/>
	
		<path id="path4064-2" sodipodi:cx="500.03137" sodipodi:cy="28.692717" sodipodi:rx="1.3572516" sodipodi:ry="1.3241479" sodipodi:type="arc" class="st7" d="
		M409.8-147.7c0,4.2-3.4,7.7-7.7,7.7c-4.2,0-7.7-3.4-7.7-7.7s3.4-7.7,7.7-7.7C406.4-155.3,409.8-151.9,409.8-147.7z"/>
	
		<path id="path4064-0" sodipodi:cx="500.03137" sodipodi:cy="28.692717" sodipodi:rx="1.3572516" sodipodi:ry="1.3241479" sodipodi:type="arc" class="st7" d="
		M473-148.4c0,4.2-3.4,7.7-7.7,7.7c-4.2,0-7.7-3.4-7.7-7.7s3.4-7.7,7.7-7.7C469.6-156.1,473-152.6,473-148.4z"/>
</g>
</svg>
