<?xml version="1.0" encoding="utf-8"?>
<!-- Generator: Adobe Illustrator 23.0.0, SVG Export Plug-In . SVG Version: 6.00 Build 0)  -->
<svg version="1.1"
	 id="svg4209" inkscape:version="0.48.5 r10040" sodipodi:docname="IconoAlergenoSoja-Soy.svg" xmlns:cc="http://creativecommons.org/ns#" xmlns:dc="http://purl.org/dc/elements/1.1/" xmlns:inkscape="http://www.inkscape.org/namespaces/inkscape" xmlns:rdf="http://www.w3.org/1999/02/22-rdf-syntax-ns#" xmlns:sodipodi="http://sodipodi.sourceforge.net/DTD/sodipodi-0.dtd" xmlns:svg="http://www.w3.org/2000/svg"
	 xmlns="http://www.w3.org/2000/svg" xmlns:xlink="http://www.w3.org/1999/xlink" x="0px" y="0px" viewBox="0 0 223.9 223.9"
	 style="enable-background:new 0 0 223.9 223.9;" xml:space="preserve">
<style type="text/css">
	.st0{fill:none;stroke:none;stroke-width:2.994;stroke-linecap:round;stroke-linejoin:round;}
	.st1{fill:#02A75B;stroke:#02A75B;stroke-width:4.989930e-02;stroke-linecap:round;stroke-linejoin:round;}
	.st2{fill:none;stroke:none;stroke-width:4.989930e-02;stroke-linecap:round;stroke-linejoin:round;}
	.st3{fill:#02A75B;stroke:#02A75B;stroke-width:4.989930e-02;stroke-linecap:round;stroke-linejoin:round;stroke-opacity:0.9412;}
</style>

<g id="layer1" transform="translate(0,-680.31494)" inkscape:groupmode="layer" inkscape:label="Capa 1">
	<g id="g3660" transform="matrix(5.5766335,0,0,5.5766335,-1065.732,-1080.2328)">
		<g id="g3643">
			
				<path id="path3230-2-5" sodipodi:cx="21.573027" sodipodi:cy="29.287827" sodipodi:rx="18.363815" sodipodi:ry="18.720394" sodipodi:type="arc" class="st0" d="
				M230.2,336.1c0,10.6-8.6,19.1-19.1,19.1s-19.1-8.6-19.1-19.1s8.6-19.1,19.1-19.1S230.2,325.6,230.2,336.1z"/>
			<g id="g4007" transform="translate(-30.434321,315.16539)">
				<g id="g4059">
					
						<path id="path4005" inkscape:connector-curvature="0" sodipodi:nodetypes="cccccccccccccccccccccccccccccccccccccccccccccccccc" class="st1" d="
						M228.6,30.3l0.8,0.6l0.8,0.4l1,0.3l0.9,0.2l1.4,0.2l0.9,0.1h0.8l1-0.1l1.6-0.3l1.3-0.2l1.1-0.3l1.9-0.5l1.1-0.3l1.6-0.5
						l1.2-0.4c0.4-0.1,0.8-0.2,1.1-0.3c0.4-0.1,0.8-0.1,1.2-0.1c0.6,0,1.1,0,1.6,0.1c0.3,0.1,0.7,0.2,1,0.3c0.3,0.2,0.7,0.3,1,0.6
						c0.3,0.2,0.6,0.5,0.9,0.7l1,1c0.3,0.4,0.7,0.8,1,1.3l0.3,0.4c0,0,0.1,0,0.1-0.1c0.1,0.1,0.2,0.2,0.2,0.3c-0.1,0-0.2,0-0.3,0
						l-0.4-0.1l-0.8-0.1h-1.2l-1.2,0.1l-1.6,0.3c-0.6,0.1-1.1,0.3-1.7,0.5l-2.9,1c-1.2,0.5-2.5,0.9-3.7,1.3l-1.8,0.3l-1.7,0.3
						l-1.2,0.1h-2l-1.6-0.2c-0.4-0.1-0.9-0.3-1.3-0.5c-0.6-0.2-1-0.6-1.5-0.9c-0.5-0.5-1-1-1.3-1.6l-0.4-0.8l-0.3-1.1l-0.1-0.7v-0.8
						v-0.3L228.6,30.3z"/>
					<g id="g4052">
						<path id="path4011" inkscape:connector-curvature="0" sodipodi:nodetypes="ccccccccccccccccccccccccccccccc" class="st2" d="
							M230.8,34.4l-0.1-0.3v-0.2l0.1-0.4l0.1-0.4l0.1-0.2l0.2-0.2l0.3-0.2l0.3-0.1h0.3l0.5,0.1l0.4,0.2l0.5,0.3l0.4,0.4l0.3,0.5
							l0.3,0.6l0.1,0.6v0.4l-0.2,0.6c-0.1,0.1-0.1,0.1-0.2,0.2h-0.1l-0.3,0.2l-0.2,0.1h-0.8l-0.6-0.2l-0.5-0.3l-0.4-0.4l-0.3-0.4
							l-0.2-0.4l-0.1-0.2L230.8,34.4z"/>
						
							<path id="path4011-1" inkscape:connector-curvature="0" sodipodi:nodetypes="ccccccccccccccccccccccccccccccc" class="st2" d="
							M235,34.7l-0.1-0.2c0-0.1-0.1-0.2,0-0.3v-0.4c0-0.2,0.1-0.4,0.2-0.6c0.1-0.1,0.2-0.2,0.3-0.3l0.2-0.2c0.1-0.1,0.2-0.1,0.3-0.1
							s0.1-0.1,0.4-0.1h0.4l0.4,0.1c0.2,0.1,0.4,0.1,0.6,0.2l0.5,0.3l0.3,0.3l0.3,0.4c0.1,0.2,0.3,0.5,0.4,0.7
							c0,0.2,0.1,0.3,0.1,0.5c0,0.2,0,0.5,0,0.7c0,0.2-0.1,0.4-0.2,0.5c-0.1,0.1-0.1,0.1-0.1,0.2l-0.1,0.1l-0.3,0.1l-0.3,0.1
							c-0.3,0.1-0.5,0-0.8,0l-0.6-0.2c-0.2-0.1-0.4-0.2-0.5-0.3c-0.1,0-0.3-0.3-0.4-0.4l-0.3-0.4l-0.2-0.3l-0.2-0.3L235,34.7z"/>
						
							<path id="path4011-3" inkscape:connector-curvature="0" sodipodi:nodetypes="ccccccccccccccccccccccccccccccc" class="st2" d="
							M239.4,34.3l-0.1-0.3v-0.3c-0.1-0.2,0-0.4,0-0.5l0.2-0.4l0.2-0.2c0.1-0.1,0.2-0.2,0.2-0.2c0.1-0.1,0.3-0.1,0.4-0.2l0.4-0.1
							h0.4c0.2,0,0.4,0.1,0.6,0.1c0.2,0.1,0.3,0.1,0.4,0.2c0.2,0.1,0.3,0.2,0.5,0.3c0.2,0.1,0.3,0.3,0.4,0.4
							c0.1,0.1,0.3,0.2,0.4,0.5c0.2,0.3,0.4,0.6,0.4,0.9c0,0.2,0.1,0.5,0,0.6c0,0.2-0.1,0.3-0.1,0.4c-0.1,0.2-0.2,0.4-0.3,0.5
							s-0.1,0.1-0.2,0.2l-0.1,0.1l-0.3,0.1l-0.3,0.1c-0.3,0.1-0.5,0-0.8,0l-0.6-0.2l-0.5-0.3l-0.4-0.4l-0.3-0.4l-0.2-0.4l-0.1-0.2
							L239.4,34.3z"/>
						
							<path id="path4011-8" inkscape:connector-curvature="0" sodipodi:nodetypes="ccccccccccccccccccccccccccccccc" class="st2" d="
							M243.4,32.7c-0.1-0.2-0.1-0.3-0.1-0.5v-0.4l0.1-0.2c0.1-0.2,0.1-0.3,0.2-0.4l0.2-0.2l0.2-0.2l0.3-0.2l0.3-0.1h0.3l0.5,0.1
							l0.4,0.1l0.5,0.2l0.5,0.3l0.4,0.4c0.2,0.2,0.3,0.4,0.4,0.6c0.1,0.2,0.2,0.4,0.2,0.6c0,0.2,0,0.4,0,0.6
							c-0.1,0.2-0.1,0.4-0.3,0.6c-0.1,0.1-0.1,0.2-0.2,0.2l-0.2,0.1l-0.2,0.1l-0.5,0.1c-0.3,0-0.5,0-0.8,0l-0.6-0.2l-0.5-0.3
							c-0.2-0.1-0.3-0.2-0.4-0.3l-0.3-0.4l-0.2-0.3L243.4,32.7L243.4,32.7z"/>
						
							<path id="path4011-0" inkscape:connector-curvature="0" sodipodi:nodetypes="ccccccccccccccccccccccccccccccc" class="st2" d="
							M247.7,31.7l-0.1-0.3v-0.2c0-0.1,0-0.2,0-0.3c0-0.2,0.1-0.3,0.2-0.5l0.2-0.2l0.3-0.2c0.1-0.1,0.2-0.1,0.3-0.2h0.3h0.3l0.5,0.1
							c0.1,0.1,0.2,0.1,0.4,0.1c0.2,0.1,0.5,0.2,0.6,0.4c0.1,0,0.2,0.1,0.3,0.2l0.4,0.4c0.2,0.2,0.2,0.5,0.3,0.7
							c0,0.2,0.1,0.4,0.1,0.6c0,0.2,0,0.3-0.1,0.4l-0.2,0.3c-0.1,0.1-0.2,0.2-0.3,0.3l-0.2,0.1l-0.2,0.1l-0.3,0.1h-0.6l-0.6-0.1
							l-0.5-0.2l-0.5-0.3l-0.5-0.5l-0.1-0.2l-0.1-0.2L247.7,31.7z"/>
					</g>
				</g>
				<g id="g4001">
					
						<path id="path4068" inkscape:connector-curvature="0" sodipodi:nodetypes="ccccccccccccccccccccccccccccccccccccccccccccccc" class="st3" d="
						M235,10.4l0.4-1.2l0.3-0.8l0.4-0.8l0.5-0.9l0.6-0.8l0.5-0.6l0.4-0.4l0.5-0.6l0.8,0.4l0.9,0.6l1,0.8l0.7,0.8l0.6,0.6l0.6,0.8
						l0.5,0.7l0.4,0.7l0.3,0.7l0.2,0.8l0.1,0.8v0.8v0.8l-0.3,0.8l-0.3,0.8l-0.4,0.7l-0.4,0.6l-0.6,0.7l-0.6,0.6l-1.1,0.8
						c-0.6-3.6-1-7.2-1.8-10.8c0.3,3.4,0.8,7.2,1.2,10.8l-0.6-0.2l-0.5-0.1l-0.6-0.3l-0.8-0.4l-0.4-0.2l-0.4-0.3l-0.5-0.4l-0.4-0.4
						l-0.4-0.5l-0.4-0.7L235,14l-0.1-0.5l-0.1-0.9l0.1-0.8L235,11V10.4z"/>
					
						<path id="path4070" inkscape:connector-curvature="0" sodipodi:nodetypes="ccccccccccccccccccccccccccccccccccccccccc" class="st3" d="
						M240.2,21.7l-8.6-0.9l1.9,0.4l1.8,0.3l1.4,0.2l1.9,0.3l1.5,0.2l-0.4,0.7l-0.5,0.7l-0.6,0.7l-0.6,0.5l-0.7,0.4l-0.8,0.3
						l-0.7,0.1h-0.9l-0.8-0.2l-0.8-0.2l-1.1-0.5l-1.2-0.8l-0.9-0.8l-0.7-0.7l-0.7-0.9l-0.4-0.6l-0.4-0.6l0.6-0.5l0.9-0.8l0.6-0.4
						l0.6-0.4l1.2-0.6l0.8-0.4l0.6-0.2l1.1-0.2h0.9l0.9,0.2l0.7,0.2l0.8,0.5l0.8,0.8l0.7,0.9l0.6,1l0.3,0.9L240.2,21.7z"/>
					
						<path id="path4072" inkscape:connector-curvature="0" sodipodi:nodetypes="ccccccccccccccccccccccccccccccccccccccccccccccccc" class="st3" d="
						M241.7,21.4l0.1-0.7V20l0.1-0.6l0.2-0.8l0.4-0.9l0.6-0.8l0.9-0.8l0.9-0.5l0.7-0.3l1-0.1l0.8-0.1h1l0.9,0.1l1,0.2l1,0.3l0.9,0.3
						l0.8,0.3l0.9,0.6l-0.1,0.6l-0.3,0.8l-0.5,1.2l-0.6,0.9l-0.5,0.6l-0.6,0.9l-0.6,0.7c-0.2,0.3-0.5,0.4-0.8,0.6l-0.8,0.5l-0.7,0.3
						l-0.8,0.2l-0.8,0.1h-0.9L245,24l-1-0.5l-0.9-0.6l-0.8-0.6l-0.4-0.5l3.5-1.4l1.7-0.7l2.1-0.9l1.7-0.7l2.2-0.8L251,18l-1.9,0.7
						l-1.6,0.6l-1.5,0.5l-1.7,0.7l-1.1,0.4L241.7,21.4z"/>
					
						<path id="path3231" inkscape:connector-curvature="0" sodipodi:nodetypes="cccccccccccccccccccccccccccccccccccccccccc" class="st3" d="
						M240.4,18.5h0.5L241,19v0.4V20l0.1,0.8l0.1,0.8l0.4-0.2l0.2,0.4l-0.6,0.3l0.1,0.6v0.5v0.5v0.5v0.6l-0.1,0.5l-0.1,0.6l-0.1,0.6
						l-0.2,0.8l-0.2,0.6l-0.3,0.6l-0.4,0.7l-0.3,0.5l-0.4-0.2l0.3-0.4l0.4-0.6l0.4-0.8l0.2-0.7l0.2-0.5l0.1-0.5l0.1-0.5
						c0.1-0.5,0.1-1.1,0.1-1.8v-0.9l-0.1-0.4l0,0h-0.8l0.1-0.5l0.6,0.1l-0.2-0.8l-0.1-0.9v-0.6L240.4,18.5z"/>
				</g>
			</g>
		</g>
	</g>
</g>
</svg>
