<?xml version="1.0" encoding="utf-8"?>
<!-- Generator: Adobe Illustrator 23.0.0, SVG Export Plug-In . SVG Version: 6.00 Build 0)  -->
<svg version="1.1"
	 id="svg4209" inkscape:version="0.48.5 r10040" sodipodi:docname="IconoAlergenoPescado-Fish.svg" xmlns:cc="http://creativecommons.org/ns#" xmlns:dc="http://purl.org/dc/elements/1.1/" xmlns:inkscape="http://www.inkscape.org/namespaces/inkscape" xmlns:rdf="http://www.w3.org/1999/02/22-rdf-syntax-ns#" xmlns:sodipodi="http://sodipodi.sourceforge.net/DTD/sodipodi-0.dtd" xmlns:svg="http://www.w3.org/2000/svg"
	 xmlns="http://www.w3.org/2000/svg" xmlns:xlink="http://www.w3.org/1999/xlink" x="0px" y="0px" viewBox="0 0 223.9 223.9"
	 style="enable-background:new 0 0 223.9 223.9;" xml:space="preserve">
<style type="text/css">
	.st0{fill:#28429D;stroke:#28429D;stroke-width:2.9933;stroke-linecap:round;stroke-linejoin:round;}
	.st1{fill:#FFFFFF;stroke:#FFFFFF;stroke-width:4.988772e-02;}
	.st2{fill:#28429D;stroke:#28429D;stroke-width:4.988772e-02;}
</style>
<path id="path3230-2-8" sodipodi:cx="21.573027" sodipodi:cy="29.287827" sodipodi:rx="18.363815" sodipodi:ry="18.720394" sodipodi:type="arc" class="st0" d="
	M218.3,112c0,58.7-47.6,106.3-106.3,106.3S5.7,170.7,5.7,112S53.3,5.7,112,5.7S218.3,53.3,218.3,112z"/>
<g id="g4152" transform="translate(44.875963,326.33619)">
	
		<path id="path4134" inkscape:connector-curvature="0" sodipodi:nodetypes="ccccccccccccccccccccccccccccccccccccccccccccccccccccccccccc" class="st1" d="
		M-14.6-204.8l7.1-3.3l-8.4-6.8c1.1-1.8,2.1-3.7,3.7-5.5c3.2-3.7,5.7-7.5,10.1-11.2c3.5-2.8,6.9-5.6,11.1-7.6
		c3.2-1.6,6.7-2.9,10.2-4.2c5.1-1.4,11-2.7,18.1-4c2.7-0.8,5.5-1.3,7.8-2.6l4.4-5.5c2.5-2.1,4.9-4.3,8-6.3c2.7-1.2,4.6-2.7,9.9-3.3
		c2-0.4,3.9-0.1,5.8,0.6c1.2,0.6,2.3,1.4,2.4,2.8c-0.2,1.7-0.8,3.4-1.8,5.1l-4.8,8.1c-0.5,1.2-1.4,1.9-1.5,3.5
		c4.1,1.3,8.3,2.5,12.4,4.2c3.9,1.2,7,2.9,10.3,4.4c3.9,1.5,6.4,3,9.1,4.5c4.4,2.6,8,5.1,11.8,7.7l4.5,3.8c2-2.9,3.4-5.2,7.9-8.7
		c3-2,5.8-4.1,10-5.7c3.4-0.8,6.4-1.9,11-1.9c1.8,0.1,4.9,0.1,5.5,1.5l-4.8,3.9c-2,1.7-4.1,4.1-6.1,6.3c-2.3,3.5-3.5,5.9-4.3,8
		c-0.6,2.2-1.4,4.3-1,6.5c0,2.4,1.7,5.4,2.9,8.2l6.1,7.4l7.3,6.3c-1.3,2.1-1.1,1.5-4.4,3.2c-2.5,0.7-5.1,0.6-7.6,0.3l-6.3-2.3
		c-2.4-1.8-5.3-3.4-6.8-5.2l-6-6.1l-3.4-4.2c-1.3,2-2.9,3.8-4.8,5.5c-2.6,2.2-5.4,4.1-8.2,5.9l-6.5,3.4l-7.2,3.2
		c-5.5,2.2-11,4.2-16.5,6l-7.1,2.1c-0.1,1.5,0.6,2.5,1.7,3.4l5,3.6L76-166c-1.3,1.1-3.3,1.6-5,2.2c-1.6,0.4-3.7,0.2-5.8,0.1
		c-3.2-1-5.9-2.3-7.9-4.1L54-171l-3.1-4.1c-2-0.9-4.1-1.4-6.1-1.7L32-178.3c-6-0.4-12.1-1.3-18.4-3.1c-4.8-1.8-9.3-4.1-13.5-7
		c-3.4-2.9-6.7-5.9-9.1-8.6L-14.6-204.8z"/>
	
		<path id="path4140" sodipodi:cx="148.47491" sodipodi:cy="30.271761" sodipodi:rx="0.83706784" sodipodi:ry="0.83706784" sodipodi:type="arc" class="st2" d="
		M26.4-221.7c0,3.6-2.9,6.6-6.6,6.6s-6.6-2.9-6.6-6.6c0-3.6,2.9-6.6,6.6-6.6C23.5-228.2,26.4-225.3,26.4-221.7z"/>
	<path id="path4142" inkscape:connector-curvature="0" sodipodi:nodetypes="cccccccccccccccccccccccccccc" class="st2" d="
		M32.3-183.3l3.8-3.4l4.7-5.8l3.3-6.6c0.9-2,1.8-4.4,2.1-6.8l0.6-5.6c0-2.4-0.1-4.9-0.6-7.6c-0.5-2.8-1.2-5.7-2.3-8.8l-3.3-6.9
		l-3.9-6l-1.2-1.9l2.8,2.4l4.5,4.7l2.2,2.9l3.1,5.6l1.6,4.5l1,3.5l0.6,3.3l0.1,4.4l-0.3,4.3l-1,4.4l-1.2,3.9l-2.2,3.6l-1.9,2.5
		l-2.6,2.8l-4,3.1l-4.1,2.7L32.3-183.3z"/>
</g>
</svg>
