<?xml version="1.0" encoding="utf-8"?>
<!-- Generator: Adobe Illustrator 23.0.0, SVG Export Plug-In . SVG Version: 6.00 Build 0)  -->
<svg version="1.1"
	 id="svg4209" inkscape:version="0.48.5 r10040" sodipodi:docname="IconoAlergenoGranosSesamo.svg" xmlns:cc="http://creativecommons.org/ns#" xmlns:dc="http://purl.org/dc/elements/1.1/" xmlns:inkscape="http://www.inkscape.org/namespaces/inkscape" xmlns:rdf="http://www.w3.org/1999/02/22-rdf-syntax-ns#" xmlns:sodipodi="http://sodipodi.sourceforge.net/DTD/sodipodi-0.dtd" xmlns:svg="http://www.w3.org/2000/svg"
	 xmlns="http://www.w3.org/2000/svg" xmlns:xlink="http://www.w3.org/1999/xlink" x="0px" y="0px" viewBox="0 0 223.9 223.9"
	 style="enable-background:new 0 0 223.9 223.9;" xml:space="preserve">
<style type="text/css">
	.st0{fill:#9A8E6C;stroke:#9A8E6C;stroke-width:2.9933;stroke-linecap:round;stroke-linejoin:round;}
	.st1{fill:#FFFFFF;stroke:#FFFFFF;stroke-width:4.988773e-02;stroke-linecap:round;stroke-linejoin:round;}
	.st2{fill:#FFFFFF;stroke:#FFFFFF;stroke-width:4.228830e-02;stroke-linecap:round;stroke-linejoin:round;}
	.st3{fill:#FFFFFF;stroke:#FFFFFF;stroke-width:3.560301e-02;stroke-linecap:round;stroke-linejoin:round;}
	.st4{fill:#FFFFFF;stroke:#FFFFFF;stroke-width:2.671961e-02;stroke-linecap:round;stroke-linejoin:round;}
	.st5{fill:#FFFFFF;stroke:#FFFFFF;stroke-width:3.984911e-02;stroke-linecap:round;stroke-linejoin:round;}
</style>
<path id="path3230-2-6" sodipodi:cx="21.573027" sodipodi:cy="29.287827" sodipodi:rx="18.363815" sodipodi:ry="18.720394" sodipodi:type="arc" class="st0" d="
	M218.3,113.1c0,58.7-47.6,106.3-106.3,106.3S5.7,171.8,5.7,113.1S53.3,6.8,112,6.8S218.3,54.4,218.3,113.1z"/>
<g id="g3141" transform="translate(1.8080426,0)">
	<path id="path4248" inkscape:connector-curvature="0" sodipodi:nodetypes="ccccccccccccccccccccccccccccccccccc" class="st1" d="
		M125.6,100.9l1.5-2.1l2.8-2.6l3.8-2.8l5.9-4.5l4.9-3.2l4.4-2.7l4.6-2.6l6.2-2.8l6.5-2.2l3.1-0.4l2.2,0.2l1.1,0.8
		c-10,11-20.2,22-31.1,32.8c0.4,0.8-0.2,2.4,1.9,1.7c10.5-10.7,20.8-21.5,30.6-32.7l0.3,2.9c-0.1,1.6-0.3,3.4-0.6,5.5l-1.4,7.1
		l-2.6,6.5l-6.5,13.9l-3.8,6.7l-2.6,4.1L154,128l-3.8,3.4l-4.5,3.3l-6.5,2.3c-2.3,0.7-4.5,1.2-6.8,0.8l-5.2-1.5l-4-2.2
		c-1.7-1.7-3-3.7-4.5-5.5c-1.1-2.5-1.6-4.8-1.5-6.9l0.3-6.2c1.1-3.4,3.1-7.6,4.3-9.3L125.6,100.9z"/>
	<path id="path4248-0" inkscape:connector-curvature="0" sodipodi:nodetypes="ccccccccccccccccccccccccccccccccccc" class="st2" d="
		M87.1,113.1l-1.3,1.8l-2.3,2.2l-3.2,2.3l-5,3.8l-4.2,2.7l-3.7,2.2l-3.9,2.1l-5.2,2.3l-5.4,1.7l-2.6,0.3l-1.9-0.2l-0.9-0.7
		C56,124.3,64.7,115,74,105.9c-0.3-0.7,0.2-2.1-1.6-1.5c-9,9-17.7,18.2-26.1,27.6l-0.2-2.5c0.1-1.4,0.3-2.9,0.6-4.7l1.3-6l2.3-5.6
		l5.7-11.9l3.3-5.7l2.2-3.5l2.4-2.7l3.2-2.8l3.8-2.7l5.4-1.9c1.9-0.5,3.8-1,5.7-0.6l4.3,1.4l3.3,2c1.4,1.4,2.4,3.2,3.6,4.8
		c0.9,2.2,1.3,4.2,1.2,5.9l-0.4,5.3c-1,2.9-2.7,6.4-3.7,7.9L87.1,113.1z"/>
	<path id="path4248-5" inkscape:connector-curvature="0" sodipodi:nodetypes="ccccccccccccccccccccccccccccccccccc" class="st3" d="
		M103.1,65.4l-0.8-1.8l-0.7-2.8l-0.5-3.5l-1-5.5l-0.5-4.5l-0.3-3.9l-0.2-4l0.2-5.2l0.6-5.2l0.6-2.3l0.8-1.5l0.8-0.5
		c3.7,10.6,7.2,21.3,10.5,32.5c0.6,0,1.4,0.9,1.6-0.7c-3.3-10.9-6.8-21.6-10.6-32.2l1.8,0.8c0.9,0.6,2,1.3,3.1,2.3l3.8,3.3l3.1,4
		l6.4,9.2l2.9,4.9l1.7,3.2l1.1,3l0.9,3.7l0.6,4.2l-0.5,5.2c-0.3,1.8-0.6,3.5-1.5,5l-2.4,3l-2.5,2c-1.5,0.6-3.1,0.8-4.6,1.2
		c-1.8-0.1-3.3-0.5-4.6-1.3l-3.6-2.3c-1.7-1.9-3.6-4.7-4.3-6.1L103.1,65.4z"/>
	<path id="path4248-1" inkscape:connector-curvature="0" sodipodi:nodetypes="ccccccccccccccccccccccccccccccccccc" class="st4" d="
		M120.7,18.8l-1.2-0.6l-1.6-1.3l-1.8-1.8l-2.9-2.8l-2.1-2.4l-1.8-2.2l-1.8-2.3l-2.1-3.2l-1.9-3.5l-0.6-1.8l-0.2-1.3l0.2-0.8
		c6.4,4.3,12.9,8.8,19.3,13.7c0.3-0.3,1.1-0.2,0.5-1.3c-6.4-4.7-12.8-9.2-19.2-13.5l1.3-0.5c0.8-0.2,1.6-0.3,2.6-0.4l3.4-0.2
		l3.4,0.6l7.3,1.9l3.6,1.3l2.3,0.9l1.8,1.2l2.1,1.8l2.1,2.2l2,3.5c0.6,1.2,1.2,2.5,1.3,3.9l0,3.2l-0.5,2.6c-0.5,1.2-1.3,2.2-1.9,3.4
		c-1,1-2,1.6-3,1.8l-2.9,0.6c-1.7-0.2-3.9-0.8-4.9-1.3L120.7,18.8z"/>
	
		<path id="path4248-19" inkscape:connector-curvature="0" sodipodi:nodetypes="ccccccccccccccccccccccccccccccccccc" class="st5" d="
		M102.7,185.1l-1.2-1.6l-1.3-2.6l-1.2-3.4l-2-5.3l-1.2-4.3l-1-3.8l-0.8-3.9l-0.5-5.1l0-5.2l0.5-2.3l0.7-1.6l0.9-0.6
		c6.1,9.9,12.2,19.9,17.9,30.4c0.7-0.1,1.9,0.7,1.9-0.9c-5.7-10.2-11.7-20.3-17.9-30.1l2.4,0.5c1.3,0.5,2.7,1.1,4.2,1.8l5.3,2.8
		l4.5,3.5l9.4,8.2l4.4,4.4l2.6,2.9l1.8,2.8l1.7,3.5l1.4,4l0.1,5.2c-0.1,1.8-0.2,3.6-1.2,5.1l-2.6,3.3l-2.8,2.3
		c-1.8,0.8-3.7,1.2-5.6,1.8c-2.3,0.1-4.3-0.1-5.9-0.6l-4.9-1.8c-2.5-1.7-5.2-4.1-6.3-5.4L102.7,185.1z"/>
</g>
</svg>
